<svg width="109" height="109" viewBox="0 0 109 109" fill="none" xmlns="http://www.w3.org/2000/svg">
<path d="M107.927 16.23C107.434 14.8332 106.515 13.626 105.301 12.7777C104.086 11.9295 102.636 11.4826 101.155 11.5H95.3499L93.6837 6.28625C92.9312 3.06125 90.0287 0.75 86.7499 0.75C83.4712 0.75 80.5687 3.06125 79.8162 6.34L78.1499 11.5H72.3987C69.3349 11.5 66.5937 13.3813 65.6262 16.23C64.6049 19.24 65.8412 22.5188 68.6362 24.185L73.3124 26.98L71.1624 33.645C69.9262 36.7625 70.9474 40.3638 73.5812 42.3525C74.8174 43.2663 76.3224 43.75 77.7737 43.75C79.4399 43.75 81.0524 43.1588 82.3962 42.03L86.7499 38.2675L91.1037 42.03C92.4474 43.1588 94.0599 43.75 95.7262 43.75C97.1774 43.75 98.6824 43.2663 99.9187 42.3525C102.606 40.3638 103.574 36.7625 102.337 33.645L100.241 26.98L104.917 24.185C107.659 22.5188 108.895 19.24 107.927 16.23ZM86.7499 27.625C83.7937 27.625 81.3749 25.2062 81.3749 22.25C81.3749 19.2938 83.7937 16.875 86.7499 16.875C89.7062 16.875 92.1249 19.2938 92.1249 22.25C92.1249 25.2062 89.7062 27.625 86.7499 27.625ZM62.5087 46.4913C60.1974 44.18 57.4562 42.5675 54.4999 41.4925V33H49.1249V40.4175C48.5337 40.3638 47.8887 40.2563 47.2974 40.2563C41.8149 40.2563 36.2787 42.3525 32.0862 46.545C31.2262 47.405 30.4737 48.3725 29.7749 49.3937L22.2499 46.545C18.2221 45.1294 13.7979 45.3634 9.94177 47.1958C6.08562 49.0282 3.11009 52.3106 1.66369 56.3275C0.212442 60.3587 0.427442 64.7663 2.30869 68.6363C3.54494 71.2162 5.42619 73.3125 7.68369 74.8712C5.64119 82.1275 7.36119 90.19 13.0587 95.8875C15.7648 98.5751 19.1402 100.491 22.8352 101.436C26.5303 102.381 30.4107 102.321 34.0749 101.263C35.6337 103.52 37.7299 105.401 40.3099 106.638C42.5674 107.713 44.8787 108.25 47.2437 108.25C49.0712 108.25 50.8987 107.927 52.6724 107.336C54.6753 106.622 56.5177 105.52 58.0939 104.093C59.6701 102.666 60.9493 100.942 61.858 99.0194C62.7668 97.0971 63.2873 95.0143 63.3897 92.8904C63.4921 90.7666 63.1745 88.6434 62.4549 86.6425L59.6599 79.2788C60.6274 78.58 61.5949 77.8275 62.5087 76.9675C67.1849 72.2913 69.1737 66.0025 68.6362 59.9288H75.9999V54.5538H67.4537C66.4324 51.5975 64.8199 48.8563 62.5087 46.4913ZM15.1012 66.8087C13.7574 66.325 12.6824 65.3575 12.0374 64.0675C11.3924 62.7775 11.3387 61.3263 11.8224 59.9825C12.8437 57.1875 15.9074 55.7362 18.5949 56.7038L35.5799 63.1C29.3987 66.325 21.4437 69.0662 15.1012 66.8087ZM49.0712 97.1775C47.7274 97.6613 46.2762 97.6075 44.9862 96.9625C44.3487 96.6594 43.7781 96.2324 43.3074 95.7063C42.8368 95.1803 42.4756 94.5658 42.2449 93.8988C39.9874 87.5563 42.7287 79.655 46.0074 73.4737L52.3499 90.2975C53.3174 93.0925 51.8662 96.21 49.0712 97.1775ZM55.5749 68.475L52.2962 59.8212C52.2962 59.7675 52.2424 59.7137 52.1887 59.66L51.8662 59.015C51.7602 58.8062 51.6342 58.6082 51.4899 58.4237L51.0062 57.94L50.5224 57.4562C50.3612 57.295 50.1462 57.1875 49.9312 57.08C49.7162 56.9725 49.5549 56.8112 49.2862 56.7575C49.2324 56.7575 49.1787 56.7037 49.1249 56.65L40.5249 53.425C42.5646 51.7108 45.1765 50.8304 47.8376 50.96C50.4987 51.0896 53.0127 52.2196 54.8762 54.1238C58.7999 58.0475 59.0149 64.2288 55.5749 68.475Z" fill="#00704E"/>
</svg>
