<svg width="131" height="129" viewBox="0 0 131 129" fill="none" xmlns="http://www.w3.org/2000/svg">
<path d="M85.2911 107.583L82.0644 81.7495C81.6072 78.0904 79.8289 74.7243 77.064 72.2844C74.299 69.8444 70.7379 68.4986 67.0504 68.5H55.9385C52.2527 68.501 48.6941 69.848 45.9312 72.2877C43.1684 74.7275 41.3916 78.0921 40.9345 81.7495L37.7028 107.583C37.5255 109.002 37.6521 110.443 38.0743 111.81C38.4965 113.176 39.2046 114.437 40.1516 115.509C41.0986 116.581 42.2628 117.439 43.5669 118.027C44.8711 118.614 46.2852 118.918 47.7156 118.917H75.2834C76.7133 118.917 78.1269 118.613 79.4304 118.025C80.734 117.438 81.8976 116.579 82.844 115.507C83.7905 114.436 84.4981 113.175 84.92 111.808C85.3419 110.442 85.4684 109.002 85.2911 107.583V107.583Z" stroke="#26368D" stroke-width="9" stroke-linecap="round" stroke-linejoin="round"/>
<path d="M61.5 48.3334C69.8533 48.3334 76.625 41.5617 76.625 33.2084C76.625 24.8551 69.8533 18.0834 61.5 18.0834C53.1467 18.0834 46.375 24.8551 46.375 33.2084C46.375 41.5617 53.1467 48.3334 61.5 48.3334Z" stroke="#26368D" stroke-width="9"/>
<path d="M21.1663 63.4584C26.7352 63.4584 31.2497 58.944 31.2497 53.3751C31.2497 47.8062 26.7352 43.2917 21.1663 43.2917C15.5975 43.2917 11.083 47.8062 11.083 53.3751C11.083 58.944 15.5975 63.4584 21.1663 63.4584Z" stroke="#26368D" stroke-width="9"/>
<path d="M101.833 63.4584C107.402 63.4584 111.917 58.944 111.917 53.3751C111.917 47.8062 107.402 43.2917 101.833 43.2917C96.2645 43.2917 91.75 47.8062 91.75 53.3751C91.75 58.944 96.2645 63.4584 101.833 63.4584Z" stroke="#26368D" stroke-width="9"/>
<path d="M21.1665 78.5834H19.6238C17.2369 78.5831 14.9273 79.4295 13.1058 80.9722C11.2844 82.5148 10.0692 84.6536 9.67659 87.008L7.99772 97.0913C7.75679 98.536 7.83347 100.016 8.22242 101.428C8.61137 102.84 9.30326 104.15 10.25 105.268C11.1967 106.385 12.3755 107.283 13.7043 107.899C15.0332 108.515 16.4803 108.834 17.9449 108.833H36.2915M101.833 78.5834H103.376C105.763 78.5831 108.073 79.4295 109.894 80.9722C111.715 82.5148 112.931 84.6536 113.323 87.008L115.002 97.0913C115.243 98.536 115.166 100.016 114.777 101.428C114.388 102.84 113.696 104.15 112.75 105.268C111.803 106.385 110.624 107.283 109.295 107.899C107.967 108.515 106.519 108.834 105.055 108.833H86.7082" stroke="#26368D" stroke-width="9" stroke-linecap="round" stroke-linejoin="round"/>
</svg>
