<svg width="121" height="119" viewBox="0 0 121 119" fill="none" xmlns="http://www.w3.org/2000/svg">
<path d="M29.625 107.5H51.125C51.125 113.412 46.2875 118.25 40.375 118.25C34.4625 118.25 29.625 113.412 29.625 107.5ZM18.875 102.125H61.875V91.375H18.875V102.125ZM80.6875 51.0625C80.6875 71.595 66.39 82.56 60.4237 86H20.3263C14.36 82.56 0.0625 71.595 0.0625 51.0625C0.0625 28.81 18.1225 10.75 40.375 10.75C62.6275 10.75 80.6875 28.81 80.6875 51.0625ZM69.9375 51.0625C69.9375 34.7762 56.6613 21.5 40.375 21.5C24.0888 21.5 10.8125 34.7762 10.8125 51.0625C10.8125 64.3388 18.8212 71.9713 23.4438 75.25H57.3062C61.9287 71.9713 69.9375 64.3388 69.9375 51.0625ZM106.864 39.6138L99.5 43L106.864 46.3862L110.25 53.75L113.636 46.3862L121 43L113.636 39.6138L110.25 32.25L106.864 39.6138ZM94.125 32.25L99.1775 21.1775L110.25 16.125L99.1775 11.0725L94.125 0L89.0725 11.0725L78 16.125L89.0725 21.1775L94.125 32.25Z" fill="#26368D"/>
</svg>
