<svg width="109" height="97" viewBox="0 0 109 97" fill="none" xmlns="http://www.w3.org/2000/svg">
<path d="M105.278 16.8143L73.0276 0.689317C72.2809 0.315644 71.4573 0.121094 70.6223 0.121094C69.7873 0.121094 68.9637 0.315644 68.217 0.689317L38.375 15.6157L8.52763 0.689317C7.70796 0.279727 6.79719 0.0864839 5.88182 0.127941C4.96645 0.169398 4.07687 0.444178 3.29758 0.926184C2.5183 1.40819 1.87517 2.08142 1.42929 2.88192C0.983406 3.68243 0.749573 4.58363 0.750001 5.49994V75.3749C0.750001 77.4121 1.90025 79.2718 3.72238 80.1856L35.9724 96.3106C36.7191 96.6842 37.5427 96.8788 38.3777 96.8788C39.2127 96.8788 40.0362 96.6842 40.783 96.3106L70.625 81.3842L100.472 96.3052C101.29 96.7187 102.2 96.9146 103.115 96.8741C104.03 96.8336 104.919 96.5581 105.697 96.0741C107.282 95.0904 108.25 93.3651 108.25 91.4999V21.6249C108.25 19.5878 107.1 17.7281 105.278 16.8143ZM43.75 24.9467L65.25 14.1967V72.0532L43.75 82.8032V24.9467ZM11.5 14.1967L33 24.9467V82.8032L11.5 72.0532V14.1967ZM97.5 82.8032L76 72.0532V14.1967L97.5 24.9467V82.8032Z" fill="#00704E"/>
</svg>
