<svg width="99" height="20" viewBox="0 0 99 20" fill="none" xmlns="http://www.w3.org/2000/svg">
<g clip-path="url(#clip0_308_1465)">
<path d="M0 0.348209H9.44734C10.0951 0.342542 10.7375 0.465821 11.3371 0.710864C11.9368 0.955908 12.4816 1.31782 12.94 1.77551C13.3984 2.23321 13.7612 2.77754 14.0071 3.3768C14.2531 3.97606 14.3774 4.61828 14.3727 5.26603C14.3727 7.23517 13.2152 8.80096 11.2436 9.38218C13.6487 9.84314 15.1844 11.6119 15.1844 13.9593C15.1937 14.642 15.067 15.3197 14.8118 15.953C14.5566 16.5862 14.1779 17.1624 13.6978 17.6478C13.2177 18.1333 12.6458 18.5183 12.0155 18.7806C11.3851 19.0428 10.7088 19.177 10.0261 19.1752H0.00501541L0 0.348209ZM8.22977 8.05439C9.30202 8.05439 10.0837 7.18757 10.0837 6.08525C10.0921 5.82913 10.0488 5.57393 9.95651 5.33488C9.86419 5.09582 9.72468 4.8778 9.5463 4.69381C9.36792 4.50982 9.15433 4.36363 8.91824 4.26395C8.68216 4.16427 8.42842 4.11314 8.17216 4.11362H4.289V8.05439H8.22977ZM8.75087 15.242C9.02305 15.2456 9.29313 15.1937 9.54461 15.0896C9.79609 14.9854 10.0237 14.8311 10.2136 14.636C10.4035 14.441 10.5516 14.2093 10.649 13.9551C10.7464 13.7009 10.7911 13.4296 10.7801 13.1576C10.7885 12.8813 10.7402 12.6062 10.6382 12.3492C10.5363 12.0923 10.3829 11.8589 10.1874 11.6634C9.99197 11.468 9.75856 11.3145 9.50161 11.2126C9.24465 11.1107 8.96956 11.0624 8.69325 11.0707H4.289V15.242H8.75087Z" fill="black"/>
<path d="M39.9664 0.348267V15.0667H48.6496V19.1828H35.6774V0.348267H39.9664Z" fill="black"/>
<path d="M54.5621 0.348267V19.1828H50.2731V0.348267H54.5621Z" fill="black"/>
<path d="M65.3397 15.7055C66.7576 15.7055 68.1205 15.1268 68.1205 13.8516C68.1205 10.2565 57.4556 11.3012 57.4556 5.27357C57.4556 2.20212 60.1738 0.00500488 64.4102 0.00500488C68.6466 0.00500488 72.1765 2.17707 72.4095 5.16333L67.5393 6.32076C67.4266 4.81761 66.2065 3.71279 64.533 3.71279C63.115 3.71279 61.9851 4.49694 61.9851 5.56668C61.9851 8.98887 72.7577 7.94668 72.7577 13.9718C72.7577 17.2462 69.5986 19.536 65.1067 19.536C60.4143 19.536 56.8769 17.0132 56.7617 13.596L61.7446 12.5513C61.8624 14.3727 63.1651 15.7055 65.3397 15.7055Z" fill="black"/>
<path d="M88.3906 0.350708H74.9474V4.23386H88.3906V0.350708Z" fill="black"/>
<path d="M88.3906 7.82397H74.9474V11.7071H88.3906V7.82397Z" fill="black"/>
<path d="M88.3906 15.2997H74.9474V19.1828H88.3906V15.2997Z" fill="black"/>
<path d="M22.6651 14.8738L24.9148 10.214L27.167 14.8738L29.2589 19.2079H34.0665L29.4869 9.77806L24.9073 0.348267L20.3277 9.77806L15.748 19.2079H20.5707L22.6651 14.8738Z" fill="black"/>
<path d="M95.8137 19.1828H95.1874V17.4842H95.6558C96.3147 17.4842 96.7958 17.0483 96.7958 16.4545C96.7958 15.8608 96.3147 15.4274 95.6558 15.4274C94.997 15.4274 94.5159 15.8633 94.5159 16.4545C94.5173 16.5302 94.5249 16.6056 94.5385 16.68L93.9347 17.2161L92.5042 15.6954V18.8245H90.9635V14.0846H92.617L93.8019 15.8382C93.8896 14.6182 94.784 13.7363 95.9465 13.7363C97.3219 13.7363 98.3615 14.8637 98.3615 16.4195C98.3615 18.0203 97.2893 19.1828 95.8137 19.1828Z" fill="black"/>
<path d="M94.7464 12.9723C92.4917 12.9723 90.8357 11.642 90.8357 9.79813C90.8357 8.63569 91.5873 7.65112 92.647 7.47325L93.0027 9.03653C92.7899 9.1149 92.6049 9.25447 92.4712 9.43768C92.3375 9.6209 92.2609 9.83957 92.2512 10.0662C92.2512 10.8378 93.0904 11.4741 94.2554 11.4967C94.0371 11.2816 93.8656 11.0237 93.7518 10.7391C93.638 10.4546 93.5843 10.1495 93.594 9.84322C93.594 8.41272 94.6111 7.38306 95.964 7.38306C97.3619 7.38306 98.379 8.45531 98.379 9.93091C98.3615 11.7648 96.8408 12.9723 94.7464 12.9723ZM96.8032 10.1113C96.8032 9.51754 96.3022 9.08162 95.6408 9.08162C94.9794 9.08162 94.4784 9.51754 94.4784 10.1113C94.4784 10.705 94.9794 11.1384 95.6408 11.1384C96.3022 11.1384 96.7957 10.7025 96.7957 10.1113H96.8032Z" fill="black"/>
<path d="M94.5936 6.67152C92.414 6.67152 90.8357 5.35125 90.8357 3.5199C90.8357 1.68856 92.4215 0.368286 94.5936 0.368286C96.7656 0.368286 98.3515 1.68605 98.3515 3.5199C98.3515 5.35375 96.7732 6.67152 94.5936 6.67152ZM96.7506 3.51239C96.7506 2.63054 95.9439 2.10443 94.571 2.10443C93.1982 2.10443 92.3915 2.63054 92.3915 3.51239C92.3915 4.39424 93.1957 4.92034 94.571 4.92034C95.9464 4.92034 96.7506 4.40175 96.7506 3.51239Z" fill="black"/>
</g>
<defs>
<clipPath id="clip0_308_1465">
<rect width="98.3615" height="19.531" fill="white"/>
</clipPath>
</defs>
</svg>
