<svg width="128" height="26" viewBox="0 0 128 26" fill="none" xmlns="http://www.w3.org/2000/svg">
<path d="M0 0.445796H12.2898C13.1335 0.438525 13.9702 0.596643 14.7512 0.9109C15.5321 1.22516 16.2415 1.68926 16.8381 2.27615C17.4347 2.86303 17.9065 3.56093 18.226 4.32912C18.5455 5.0973 18.7062 5.92038 18.6988 6.75032C18.6988 9.27085 17.1927 11.2751 14.6272 12.019C17.7599 12.6091 19.755 14.8731 19.755 17.8778C19.7676 18.7515 19.6032 19.6189 19.2714 20.4295C18.9397 21.2401 18.4473 21.9776 17.8228 22.599C17.1984 23.2204 16.4544 23.7134 15.6343 24.0491C14.8142 24.3848 13.9344 24.5565 13.0461 24.5543H0.0065212L0 0.445796ZM10.7055 10.3098C12.1008 10.3098 13.1178 9.20029 13.1178 7.78931C13.1292 7.46163 13.0734 7.13505 12.9536 6.82906C12.8338 6.52308 12.6526 6.24398 12.4208 6.00842C12.1889 5.77287 11.9112 5.58567 11.6042 5.45804C11.2971 5.33041 10.9671 5.26496 10.6338 5.26559H5.59073V10.3098H10.7055ZM11.3868 19.5101C11.7413 19.5147 12.093 19.4483 12.4204 19.3147C12.7479 19.1812 13.0442 18.9833 13.2914 18.7333C13.5385 18.4833 13.7312 18.1864 13.8578 17.8607C13.9843 17.5349 14.042 17.1872 14.0274 16.8388C14.0382 16.4852 13.9754 16.133 13.8427 15.8041C13.7101 15.4752 13.5105 15.1765 13.2561 14.9263C13.0018 14.6761 12.6981 14.4797 12.3637 14.3492C12.0294 14.2187 11.6714 14.1569 11.3119 14.1676H5.59073V19.5101H11.3868Z" fill="#5C8670"/>
<path d="M52.0053 0.445801V19.2856H63.3171V24.5543H46.4243V0.445801H52.0053Z" fill="#5C8670"/>
<path d="M70.9984 0.445801V24.5543H65.417V0.445801H70.9984Z" fill="#5C8670"/>
<path d="M85.0186 20.1033C86.867 20.1033 88.6371 19.3625 88.6371 17.7302C88.6371 13.1285 74.7629 14.4657 74.7629 6.75025C74.7629 2.81875 78.3065 0 83.8124 0C89.3184 0 93.9181 2.78026 94.218 6.60273L87.884 8.09068C87.7341 6.16662 86.1498 4.75244 83.9722 4.75244C82.1271 4.75244 80.6536 5.75615 80.6536 7.12544C80.6536 11.5027 94.6712 10.1687 94.6712 17.8842C94.6712 22.0754 90.5637 25.0032 84.7154 25.0032C78.6096 25.0032 74.0099 21.7772 73.8567 17.4031L80.3439 16.0659C80.4938 18.3972 82.1988 20.1033 85.0186 20.1033Z" fill="#5C8670"/>
<path d="M115.017 0.448975H97.5239V5.41947H115.017V0.448975Z" fill="#5C8670"/>
<path d="M115.017 10.0146H97.5239V14.9851H115.017V10.0146Z" fill="#5C8670"/>
<path d="M115.017 19.5837H97.5239V24.5542H115.017V19.5837Z" fill="#5C8670"/>
<path d="M29.4923 19.0387L32.4197 13.0741L35.3503 19.0387L38.0723 24.5864H44.3281L38.369 12.5161L32.4099 0.445801L26.4508 12.5161L20.4917 24.5864H26.767L29.4923 19.0387Z" fill="#5C8670"/>
<path d="M124.672 24.5542H123.86V22.38H124.47C125.327 22.38 125.953 21.8221 125.953 21.0621C125.953 20.302 125.327 19.7473 124.47 19.7473C123.612 19.7473 122.986 20.3053 122.986 21.0621C122.986 21.1579 122.996 21.2535 123.016 21.3475L122.23 22.0369L120.368 20.0904V24.0956H118.36V18.0316H120.512L122.054 20.2764C122.171 18.7179 123.335 17.5891 124.848 17.5891C126.634 17.5891 127.987 19.0322 127.987 21.0204C127.987 23.0663 126.592 24.5542 124.672 24.5542Z" fill="#5C8670"/>
<path d="M123.274 16.6047C120.32 16.6047 118.181 14.902 118.181 12.5418C118.181 11.0538 119.159 9.79356 120.538 9.56588L121.005 11.5669C120.727 11.6665 120.486 11.845 120.312 12.0796C120.138 12.3143 120.038 12.5946 120.027 12.8849C120.027 13.8726 121.116 14.6871 122.635 14.716C122.351 14.4395 122.129 14.1086 121.982 13.7439C121.834 13.3793 121.765 12.9886 121.777 12.5963C121.777 10.7652 123.101 9.45044 124.861 9.45044C126.677 9.45044 128.001 10.8229 128.001 12.7117C127.988 15.0591 126.012 16.6047 123.274 16.6047ZM125.95 12.9394C125.95 12.1826 125.298 11.6246 124.438 11.6246C123.577 11.6246 122.925 12.1826 122.925 12.9394C122.925 13.6962 123.577 14.2574 124.438 14.2574C125.298 14.2574 125.954 13.6994 125.954 12.9394H125.95Z" fill="#5C8670"/>
<path d="M123.088 8.53969C120.252 8.53969 118.198 6.84971 118.198 4.50556C118.198 2.16141 120.265 0.471436 123.088 0.471436C125.912 0.471436 127.978 2.1582 127.978 4.50556C127.978 6.85292 125.925 8.53969 123.088 8.53969ZM125.882 4.50556C125.882 3.37357 124.836 2.70336 123.046 2.70336C121.256 2.70336 120.21 3.37357 120.21 4.50556C120.21 5.63755 121.256 6.30777 123.046 6.30777C124.836 6.30777 125.882 5.63435 125.882 4.50556Z" fill="#5C8670"/>
</svg>
