<svg width="138" height="23" viewBox="0 0 138 23" fill="none" xmlns="http://www.w3.org/2000/svg">
<path d="M0 0.437015H13.2565C14.1662 0.430042 15.0684 0.570658 15.9105 0.850635C16.7525 1.13061 17.5175 1.54433 18.1605 2.06759C18.8036 2.59084 19.3119 3.21313 19.6557 3.89804C19.9995 4.58295 20.1718 5.31673 20.1627 6.05646C20.1627 8.30284 18.5377 10.0867 15.7709 10.7509C19.1492 11.276 21.3045 13.2929 21.3045 15.967C21.3187 16.7466 21.1417 17.5206 20.784 18.244C20.4263 18.9674 19.8949 19.6255 19.2209 20.1801C18.5469 20.7346 17.7439 21.1744 16.8586 21.4738C15.9733 21.7732 15.0235 21.9261 14.0647 21.9237H0V0.437015ZM11.546 9.22782C11.8989 9.22437 12.2475 9.16327 12.5708 9.04814C12.8942 8.93301 13.1858 8.7662 13.4283 8.55763C13.6708 8.34906 13.8594 8.10297 13.9826 7.834C14.1059 7.56502 14.1615 7.27864 14.146 6.99187C14.158 6.69963 14.0976 6.4084 13.9682 6.13557C13.8388 5.86275 13.6431 5.61392 13.3929 5.40393C13.1426 5.19395 12.8429 5.02711 12.5116 4.91339C12.1804 4.79966 11.8243 4.74138 11.4647 4.74201H6.01673V9.22782H11.546ZM12.2772 17.424C12.6597 17.4295 13.0394 17.3713 13.3931 17.2529C13.7469 17.1345 14.067 16.9585 14.3338 16.7356C14.6007 16.5128 14.8086 16.2478 14.9447 15.9572C15.0808 15.6665 15.1422 15.3562 15.1252 15.0455C15.1371 14.7301 15.0694 14.416 14.9264 14.1226C14.7834 13.8293 14.568 13.5628 14.2936 13.3397C14.0192 13.1166 13.6916 12.9414 13.3308 12.8252C12.9701 12.7089 12.5839 12.6538 12.196 12.6635H6.01673V17.424H12.2772Z" fill="#5C8770"/>
<path d="M56.075 0.437012V17.2293H68.2709V21.9237H50.0582V0.437012H56.075Z" fill="#5C8770"/>
<path d="M76.5455 0.437012V21.9237H70.5331V0.437012H76.5455Z" fill="#5C8770"/>
<path d="M91.6707 17.956C93.6634 17.956 95.5707 17.2953 95.5707 15.8418C95.5707 11.742 80.6037 12.9312 80.6037 6.05645C80.6079 2.55125 84.4352 0.0371094 90.3664 0.0371094C96.2976 0.0371094 101.262 2.51648 101.587 5.92431L94.7453 7.24571C94.5828 5.50702 92.8766 4.26908 90.5161 4.26908C88.5276 4.26908 86.9411 5.16276 86.9411 6.38332C86.9411 10.2849 102.062 9.09568 102.062 15.9739C102.062 19.7086 97.6318 22.3201 91.3286 22.3201C84.7474 22.3201 79.7826 19.4444 79.6201 15.5427L86.6161 14.3535C86.8086 16.4364 88.6174 17.956 91.6707 17.956Z" fill="#5C8770"/>
<path d="M124.017 0.437012H105.154V4.86719H124.017V0.437012Z" fill="#5C8770"/>
<path d="M124.017 8.96362H105.154V13.3938H124.017V8.96362Z" fill="#EE7766"/>
<path d="M124.017 17.4937H105.154V21.9238H124.017V17.4937Z" fill="#5C8770"/>
<path d="M31.7985 17.0068L34.9586 11.6899L38.1145 17.0068L41.0524 21.9516H47.7961L41.3688 11.1926L34.9458 0.433594L28.5186 11.1926L22.0956 21.9516H28.8607L31.7985 17.0068Z" fill="#EE7766"/>
<path d="M134.425 21.9237H133.548V19.9868H134.207C134.486 19.9633 134.75 19.8745 134.968 19.7312C135.186 19.5879 135.349 19.3963 135.436 19.1795C135.522 18.9627 135.53 18.7301 135.458 18.5099C135.385 18.2896 135.236 18.0912 135.028 17.9385C134.819 17.7859 134.561 17.6857 134.284 17.65C134.007 17.6143 133.724 17.6447 133.468 17.7374C133.211 17.8302 132.994 17.9813 132.841 18.1726C132.689 18.3638 132.607 18.587 132.608 18.8149C132.608 18.9001 132.618 18.9851 132.638 19.0688L131.782 19.6843L129.772 17.9456V21.5169H127.613V16.1095H129.931L131.594 18.0986C131.614 17.4613 131.937 16.8552 132.495 16.4077C133.054 15.9602 133.804 15.7062 134.588 15.6992C136.516 15.6992 137.974 16.9893 137.974 18.7628C138 20.5954 136.495 21.9237 134.425 21.9237Z" fill="#EE7766"/>
<path d="M132.92 14.8369C129.734 14.8369 127.429 13.3208 127.429 11.217C127.4 10.6023 127.639 9.99906 128.104 9.51367C128.569 9.02828 129.229 8.69187 129.969 8.56371L130.474 10.3476C130.175 10.4345 129.914 10.5916 129.724 10.7989C129.535 11.0062 129.425 11.2545 129.409 11.5125C129.409 12.3923 130.585 13.1191 132.214 13.1434C131.909 12.8992 131.668 12.6064 131.508 12.2834C131.348 11.9603 131.271 11.6139 131.282 11.2656C131.26 10.9011 131.331 10.5369 131.489 10.1953C131.647 9.85379 131.889 9.54214 132.201 9.27959C132.512 9.01703 132.887 8.80913 133.301 8.66867C133.715 8.52821 134.16 8.45817 134.609 8.46287C136.567 8.46287 137.996 9.6869 137.996 11.37C138 13.4599 135.866 14.8369 132.92 14.8369ZM135.806 11.5716C135.806 10.897 135.114 10.3998 134.173 10.3998C133.895 10.4279 133.633 10.5206 133.418 10.6669C133.204 10.8131 133.046 11.0066 132.963 11.2242C132.881 11.4417 132.877 11.674 132.953 11.8931C133.029 12.1123 133.181 12.309 133.391 12.4596C133.6 12.6102 133.859 12.7084 134.136 12.7422C134.413 12.776 134.696 12.7441 134.951 12.6504C135.206 12.5566 135.423 12.4049 135.574 12.2136C135.726 12.0222 135.807 11.7993 135.806 11.5716Z" fill="#EE7766"/>
<path d="M132.715 7.64898C129.657 7.64898 127.429 6.14328 127.429 4.05337C127.429 1.96347 129.657 0.457764 132.715 0.457764C135.772 0.457764 138 1.96347 138 4.05337C138 6.14328 135.772 7.64898 132.715 7.64898ZM135.742 4.05337C135.742 3.04493 134.613 2.44682 132.685 2.44682C130.756 2.44682 129.627 3.04493 129.627 4.05337C129.627 5.06181 130.756 5.65992 132.685 5.65992C134.613 5.65992 135.742 5.06181 135.742 4.05337Z" fill="#EE7766"/>
</svg>
