<svg width="49" height="50" viewBox="0 0 49 50" fill="none" xmlns="http://www.w3.org/2000/svg">
<path d="M8.70545 41.1455L2 48M8.70545 41.1455L26.5982 22.855M33.3068 15.9973L26.6014 22.8518M26.6014 22.8518L33.3068 25.1409M26.6014 22.855L24.362 15.9973M24.362 34.2845L20.6519 33.0236C19.7201 32.7061 18.8735 32.1713 18.179 31.4613C17.4845 30.7514 16.9613 29.886 16.6508 28.9335L15.4172 25.1409M8.70545 41.1455C16.1162 48.721 28.3568 48.4947 36.0428 40.6379C45.8479 30.6148 47.0815 15.1954 46.9961 7.30628C46.9961 5.89996 46.4496 4.55124 45.4768 3.55682C44.504 2.56241 43.1846 2.00375 41.8088 2.00375C34.0913 1.91968 19.0103 3.17742 9.20203 13.2005C1.51607 21.0573 1.29466 33.57 8.70545 41.1455V41.1455Z" stroke="#5D876F" stroke-width="4" stroke-linecap="round" stroke-linejoin="round"/>
</svg>
