<svg width="213" height="126" viewBox="0 0 213 126" fill="none" xmlns="http://www.w3.org/2000/svg">
<path d="M35.7863 94.971C37.4894 95.3828 39.7478 95.8913 42.4937 96.3868C45.2395 96.8952 48.4729 97.4036 52.0826 97.9956C59.2342 99.2118 67.7989 100.306 76.993 101.001C81.5838 101.335 86.3289 101.561 91.1111 101.689C95.8932 101.799 100.712 101.779 105.451 101.664C110.196 101.535 114.861 101.271 119.347 100.923C123.827 100.563 128.122 100.087 132.126 99.5722C141.37 98.298 150.57 96.567 159.505 93.9479C163.972 92.6415 168.372 91.1356 172.642 89.3338C176.906 87.5319 181.052 85.447 184.897 82.9373C188.809 80.3439 192.665 77.6219 196.195 74.6103C199.7 71.5922 202.97 68.2716 205.13 64.4298C206.185 62.5057 206.931 60.4658 207.277 58.3422C207.616 56.2379 207.616 53.9342 207.172 51.9973C206.271 47.9882 203.242 44.6226 199.576 42.1708C195.88 39.6997 191.635 37.9235 187.272 36.585L180.528 34.6738C179.966 34.5193 179.405 34.352 178.837 34.204L177.134 33.7923L173.728 32.9685C164.639 30.8321 155.432 29.2812 146.164 28.4253C127.622 26.6942 108.882 28.0263 90.6483 31.9453C87.8099 32.6017 84.4531 33.3096 81.084 34.262C79.3995 34.7253 77.6779 35.1371 76.018 35.6197C74.3582 36.1088 72.7353 36.5787 71.205 37.0291C70.4337 37.2415 69.6871 37.4538 68.9713 37.6533C68.2555 37.8657 67.5706 38.078 66.9227 38.2711C65.6269 38.6572 64.4607 38.9854 63.4919 39.2235C61.542 39.6997 60.3511 39.8412 60.3264 39.4679C60.3017 39.0754 61.0545 38.4513 62.5046 37.6147C63.2327 37.1964 64.1336 36.7331 65.2011 36.2183C66.2748 35.7228 67.4904 35.105 68.8972 34.5773C74.4877 32.3315 82.6451 29.6094 92.7894 27.518C105.069 25.034 117.595 23.7341 130.127 23.7341C131.694 23.6826 133.262 23.7856 134.823 23.8178L139.519 23.9658L144.202 24.3133C145.763 24.442 147.331 24.5063 148.879 24.7251L153.544 25.2721C154.322 25.3687 155.099 25.4394 155.877 25.5617L158.197 25.935L162.837 26.675C164.386 26.9259 165.91 27.2798 167.446 27.5758C168.983 27.8911 170.519 28.1807 172.05 28.5153L176.616 29.6223C179.67 30.3109 182.675 31.2054 185.686 32.0484C188.685 32.8463 191.764 33.8436 194.695 35.1242C197.639 36.3984 200.514 37.9428 203.161 39.9441C205.778 41.9712 208.172 44.5195 209.733 47.7114C210.424 49.3395 211.035 51.0512 211.195 52.8402C211.238 53.2842 211.331 53.7347 211.331 54.1658L211.356 55.4657C211.356 55.6845 211.368 55.8969 211.362 56.1157L211.313 56.7657L211.214 58.0656C210.807 61.5405 209.498 64.8611 207.721 67.7183C205.938 70.5948 203.729 73.0594 201.403 75.3053C197.99 78.5937 194.288 81.4315 190.512 84.0956L187.655 86.052C186.692 86.7019 185.686 87.3132 184.699 87.9438L181.663 89.6749C180.633 90.2025 179.602 90.7431 178.566 91.2579C170.217 95.3056 161.424 98.0406 152.557 100.177C148.12 101.245 143.647 102.12 139.155 102.854C134.669 103.594 130.158 104.199 125.641 104.662C121.124 105.139 116.595 105.493 112.066 105.718C107.537 105.962 103.002 106.078 98.4663 106.084C89.3957 106.123 80.3312 105.698 71.2914 104.881C66.7746 104.444 62.264 103.929 57.7718 103.285C53.2612 102.61 48.8431 101.889 44.3633 101.149C39.8897 100.389 35.3791 99.5013 30.9301 98.1757C26.4935 96.8243 22.1001 95.0289 18.0831 92.4484C16.0592 91.1807 14.1649 89.7071 12.3878 88.0983C11.4807 87.3132 10.6539 86.4316 9.80849 85.5758C9.0125 84.6684 8.19182 83.7739 7.4637 82.8022C4.471 78.9861 2.15089 74.5138 0.904452 69.6617C-0.181557 65.2987 -0.311138 60.6202 0.63295 56.2122C1.11425 54.0113 1.76832 51.8556 2.66305 49.8221C3.56394 47.795 4.60676 45.8387 5.82235 44.0112C7.05028 42.1965 8.38311 40.4654 9.85786 38.8759C11.3388 37.2929 12.9061 35.8065 14.5906 34.4615C16.2814 33.123 18.0338 31.9067 19.8541 30.8127C21.6744 29.7316 23.544 28.7407 25.4507 27.8591C27.3636 26.9903 29.3011 26.2051 31.2572 25.4973C33.2194 24.8023 35.194 24.1781 37.1809 23.6054C41.1547 22.4921 45.147 21.5526 49.1516 20.7675L55.1555 19.577C57.1609 19.2166 59.1787 18.9012 61.1903 18.5602L64.2077 18.0647L67.2374 17.6529C69.2613 17.389 71.2729 17.0866 73.303 16.8549C105.692 13.0582 138.673 14.9566 170.476 22.3377C172.34 22.7881 174.215 23.1743 176.067 23.6827L181.626 25.1626C185.341 26.1408 189.136 27.4086 192.721 29.1461C196.312 30.8836 199.755 33.1229 202.736 35.993L203.303 36.5207C203.488 36.7009 203.655 36.9003 203.834 37.0934L204.877 38.2518C205.241 38.625 205.537 39.0561 205.858 39.4679L206.802 40.7165C207.376 41.5916 207.937 42.4796 208.468 43.387L209.19 44.7898C209.424 45.2596 209.684 45.7164 209.869 46.2119C210.702 48.1425 211.38 50.1374 211.868 52.1773C212.374 54.2301 212.689 56.238 212.917 58.3744C213.262 62.7375 212.497 66.9847 211.251 70.9358C209.992 74.8999 208.24 78.6193 206.203 82.1265C204.161 85.6336 201.822 88.9349 199.224 92.0044C196.621 95.074 193.77 97.9313 190.549 100.415C188.951 101.593 187.365 102.7 185.767 103.839L184.57 104.688L183.971 105.113L183.354 105.505L180.88 107.075C179.226 108.118 177.597 109.199 175.869 110.113C174.154 111.046 172.475 112.043 170.735 112.932L165.466 115.473C163.695 116.284 161.868 116.973 160.073 117.732C152.822 120.57 145.307 122.681 137.68 124.058L131.941 124.952L126.172 125.538C125.209 125.654 124.247 125.692 123.284 125.737L120.39 125.879C119.428 125.911 118.459 126.001 117.496 125.988H114.602C111.27 126.053 107.95 125.834 104.631 125.692C102.971 125.602 101.323 125.422 99.6696 125.287L97.189 125.068C96.3622 124.997 95.5415 124.869 94.7208 124.779L89.7844 124.161C88.1431 123.929 86.514 123.646 84.8727 123.389C81.6147 122.9 78.2888 122.262 75.0431 121.458C68.527 119.856 62.1406 117.648 56.0256 114.753C49.9168 111.857 44.061 108.266 38.8037 103.806C33.5526 99.3597 28.9 94.0058 25.4877 87.7959C22.0755 81.6053 19.9466 74.6102 19.49 67.4543C19.0149 60.3049 20.1935 53.1105 22.5814 46.4888C24.9694 39.8477 28.5113 33.7343 32.7936 28.3095C36.8168 23.1936 41.9198 18.1162 47.8188 13.9011C50.7621 11.7904 53.8968 9.87918 57.1486 8.26397C57.9569 7.85855 58.79 7.49188 59.6045 7.10577C60.4313 6.73897 61.2705 6.4107 62.0974 6.0632C63.7696 5.44543 65.4356 4.88559 67.0831 4.31286C68.4591 3.88814 69.9647 3.50206 71.5506 3.0516C72.3404 2.8135 73.1672 2.63965 74.0064 2.4659C74.8518 2.28572 75.7095 2.09919 76.5857 1.91257C77.4557 1.70665 78.3566 1.57151 79.2637 1.42993C80.1708 1.28836 81.0902 1.14684 82.0157 0.998831C82.9413 0.831518 83.8792 0.773589 84.8233 0.664192C85.7674 0.567665 86.7115 0.471012 87.6556 0.374485C95.2268 -0.269028 102.798 0.00766972 108.388 0.52248C113.214 0.979375 118.2 1.6036 122.877 2.31147C123.549 2.40799 124.21 2.49821 124.851 2.59473C125.493 2.70413 126.116 2.80708 126.721 2.90361C127.937 3.10953 129.091 3.30897 130.189 3.49559C132.367 3.92031 134.311 4.29359 136.008 4.66683C137.705 5.0465 139.167 5.39391 140.395 5.70279C141.623 6.03099 142.616 6.32063 143.388 6.5716C146.479 7.58835 145.985 8.03884 142.295 8.05171C140.673 8.07745 142.363 8.89472 137.223 8.05816C137.013 8.02598 136.588 7.95506 136.39 7.92288C128.578 6.79674 120.717 5.53548 112.763 4.73108C104.816 3.91382 96.7571 3.51487 88.7293 4.11978C87.5013 4.2163 86.2734 4.3708 85.0455 4.49307L83.2066 4.69259L81.3802 4.98214C80.1646 5.18807 78.9367 5.33605 77.7334 5.59989L74.1237 6.38496C73.519 6.50079 72.9266 6.66808 72.3342 6.84183L70.5571 7.33734L68.78 7.83286C68.1876 8.00018 67.6138 8.23179 67.0276 8.42484L63.5413 9.64761C62.4121 10.1174 61.2643 10.555 60.1598 11.0955C51.2434 15.214 43.1971 21.4432 36.7921 29.1268C30.4118 36.7975 25.6112 46.0254 23.8464 55.9355C23.4083 58.4066 23.1368 60.9099 23.1244 63.4132L23.1059 64.3527C23.1059 64.668 23.1244 64.9769 23.1368 65.2922C23.1676 65.9164 23.1676 66.547 23.217 67.1648C23.3342 68.4068 23.433 69.6552 23.6551 70.8907C23.8094 72.1327 24.1302 73.3425 24.3771 74.5652C24.7103 75.7685 25.0188 76.9848 25.4384 78.156C26.2405 80.5177 27.2031 82.8279 28.3879 85.0094C29.5665 87.1973 30.8931 89.3081 32.374 91.2965C33.8735 93.2721 35.5025 95.1512 37.2364 96.9144C40.7351 100.422 44.6657 103.491 48.8554 106.123C57.2473 111.387 66.5895 115.029 76.1846 117.339C78.5849 117.925 80.9976 118.401 83.4473 118.8C85.9093 119.174 88.359 119.605 90.8272 119.933L94.5295 120.39C95.7636 120.531 96.9977 120.724 98.2318 120.808L101.94 121.123C103.174 121.233 104.415 121.349 105.655 121.381C115.552 121.934 125.493 121.593 135.249 120.023L137.495 119.676C138.248 119.566 138.982 119.373 139.722 119.225L144.171 118.273C145.64 117.893 147.096 117.468 148.565 117.069L150.761 116.464L152.921 115.731C154.359 115.235 155.803 114.759 157.234 114.251L161.461 112.52C162.164 112.224 162.874 111.96 163.565 111.638L165.626 110.647C166.996 109.978 168.384 109.341 169.748 108.652L173.765 106.426C174.431 106.052 175.104 105.692 175.77 105.306L177.714 104.077L181.608 101.625C182.873 100.756 184.119 99.8489 185.378 98.9673C186.624 98.0728 187.926 97.204 189.062 96.2709C190.228 95.3378 191.345 94.3146 192.431 93.2593C194.603 91.1421 196.614 88.8255 198.466 86.3866C202.155 81.4959 205.272 76.0775 207.24 70.2988C208.215 67.4158 208.869 64.4364 209.005 61.4827C209.042 60.7426 209.029 60.0089 209.005 59.2817L208.918 58.1942C208.875 57.8274 208.807 57.4413 208.758 57.0681C208.635 56.3152 208.56 55.5558 208.394 54.8158L207.894 52.6021C207.11 49.6935 205.963 46.9199 204.408 44.4102C202.859 41.9005 200.915 39.6675 198.688 37.7627C196.454 35.8514 193.924 34.3071 191.271 33.0007C188.611 31.7073 185.822 30.6325 182.947 29.8217C181.379 29.3455 179.726 28.9594 178.115 28.5282C176.492 28.1164 174.882 27.6659 173.253 27.2863C171.618 26.9195 169.989 26.5462 168.353 26.1794L165.904 25.6259L163.436 25.1369C161.788 24.8151 160.141 24.4871 158.493 24.1653C156.845 23.8243 155.179 23.5925 153.526 23.2965C151.866 23.0198 150.206 22.7109 148.54 22.4535C146.868 22.2089 145.196 21.9645 143.517 21.7199L143.745 21.7521C129.726 19.8538 115.577 19.1715 101.453 19.3903C98.1146 19.3839 94.7702 19.6027 91.4134 19.725C89.735 19.77 88.0628 19.9373 86.3845 20.0467C84.7061 20.169 83.0277 20.2978 81.3493 20.42C74.642 21.0893 67.91 21.8551 61.2273 23.0005L56.2107 23.8436L51.2188 24.8344C47.8805 25.4715 44.567 26.2052 41.3089 27.0418C38.0447 27.8784 34.8299 28.8371 31.7138 30.0083C28.5915 31.1666 25.5741 32.5502 22.7234 34.1976C19.8541 35.8321 17.2131 37.7691 14.8375 40.0021C12.4433 42.2222 10.3762 44.7963 8.66078 47.5569C6.93304 50.3176 5.68659 53.3486 4.92145 56.4568C4.17482 59.5778 4.05141 62.7954 4.48335 65.9357C4.90294 69.0825 5.98895 72.1328 7.45136 74.9513C8.92611 77.7764 10.7958 80.3891 12.974 82.6928C15.146 84.9966 17.5957 87.0171 20.212 88.7096C22.8344 90.3956 25.642 91.7664 28.5668 92.8475C30.381 93.5489 32.9479 94.2695 35.7863 94.971Z" fill="#FF7865"/>
</svg>
