<svg width="36" height="39" viewBox="0 0 36 39" fill="none" xmlns="http://www.w3.org/2000/svg">
<path d="M34.7167 24.4103C33.1342 22.5293 31.3807 20.7991 29.4786 19.242C28.6929 18.5349 27.9595 17.7667 27.2436 16.9897C27.1389 16.9897 26.9992 16.9897 26.9381 16.9199C25.7159 15.6627 24.5897 14.3008 23.446 13C23.3019 12.8384 23.1441 12.6895 22.9746 12.5548C24.1269 10.8961 25.2794 9.2286 26.3794 7.53495C26.7286 6.99368 27.7413 6.84519 26.8333 5.49201C26.6762 5.12534 26.1087 4.80239 25.7421 4.46191C24.0746 2.91667 23.3675 2.67223 23.123 3.5889C23.0794 3.78096 22.8524 3.8595 22.7127 3.99045C21.3159 3.64997 22.2936 5.16904 21.2373 5.0992C21.365 5.35929 21.3983 5.65576 21.3314 5.93769C21.2645 6.21961 21.1016 6.46946 20.8707 6.64445C20.2945 7.31668 19.6571 7.94523 19.0285 8.59126L18.2429 7.53495C16.654 5.44844 15.2048 3.25714 13.7468 1.06586C13.45 0.611895 13.7992 -0.252405 12.2278 0.0706116C11.7405 0.197082 11.2732 0.39105 10.8396 0.646833C8.74437 1.51985 8.22056 2.03485 8.87532 2.53247C9.02374 2.63723 8.99761 2.8468 9.04999 3.01267C8.17697 4.09521 9.923 3.76346 9.373 4.64521C9.63444 4.60493 9.90149 4.66425 10.1213 4.81135C10.3412 4.95845 10.4978 5.18266 10.5603 5.43969C11.246 7.1616 12.0632 8.82813 13.0048 10.4246C13.7237 11.4173 14.527 12.3462 15.4056 13.2008C14.5326 14.5889 13.7991 16.0381 12.9087 17.3912C11.5118 19.5214 9.93167 21.5206 8.54357 23.6421C6.97214 25.9992 5.05161 28.1294 3.84685 30.7397C2.97383 32.4857 1.47218 33.8302 0.180112 35.2968C-0.352428 35.9079 0.311107 37.0429 1.96984 38.2476C3.62857 39.4524 4.03017 38.7889 4.37937 38.4746C6.52319 36.4129 8.42148 34.1104 10.0365 31.6127C10.7698 30.5564 11.573 29.5611 12.35 28.5397C12.35 28.4175 12.35 28.269 12.4023 28.1817C13.6682 26.4881 14.9603 24.8119 16.2174 23.1008C16.5251 22.6288 16.7994 22.1358 17.0381 21.6255C17.4921 21.2937 17.5619 20.6912 17.8151 20.2198C18.3201 19.2995 18.8798 18.4104 19.4912 17.5572C20.277 18.4302 21.0802 19.3032 21.9357 20.1762C23.7603 21.9222 25.4277 23.8429 27.6452 25.1C29.173 25.9731 30.1944 27.4135 31.4603 28.5921C31.9841 29.0897 33.0666 28.4087 34.3063 26.7674C35.546 25.1262 34.9612 24.7246 34.7167 24.4103Z" fill="#B5D5E0"/>
</svg>
