<svg width="70" height="96" viewBox="0 0 70 96" fill="none" xmlns="http://www.w3.org/2000/svg">
<path d="M0 90H65V89H0V90ZM68.5 90C68.5 92.4853 66.4853 94.5 64 94.5V95.5C67.0376 95.5 69.5 93.0376 69.5 90H68.5ZM64 94.5C61.5147 94.5 59.5 92.4853 59.5 90H58.5C58.5 93.0376 60.9624 95.5 64 95.5V94.5ZM59.5 90C59.5 87.5147 61.5147 85.5 64 85.5V84.5C60.9624 84.5 58.5 86.9624 58.5 90H59.5ZM64 85.5C66.4853 85.5 68.5 87.5147 68.5 90H69.5C69.5 86.9624 67.0376 84.5 64 84.5V85.5ZM1 90L0.999996 -5L-4.14252e-06 -5L0 90L1 90Z" fill="#26368D"/>
</svg>
