<svg width="21" height="20" viewBox="0 0 21 20" fill="none" xmlns="http://www.w3.org/2000/svg">
<path d="M10.6121 0C5.09206 0 0.612061 4.48 0.612061 10C0.612061 15.52 5.09206 20 10.6121 20C16.1321 20 20.6121 15.52 20.6121 10C20.6121 4.48 16.1321 0 10.6121 0ZM5.68206 16.28C6.11206 15.38 8.73206 14.5 10.6121 14.5C12.4921 14.5 15.1221 15.38 15.5421 16.28C14.1821 17.36 12.4721 18 10.6121 18C8.75206 18 7.04206 17.36 5.68206 16.28ZM16.9721 14.83C15.5421 13.09 12.0721 12.5 10.6121 12.5C9.15206 12.5 5.68206 13.09 4.25206 14.83C3.23206 13.49 2.61206 11.82 2.61206 10C2.61206 5.59 6.20206 2 10.6121 2C15.0221 2 18.6121 5.59 18.6121 10C18.6121 11.82 17.9921 13.49 16.9721 14.83ZM10.6121 4C8.67206 4 7.11206 5.56 7.11206 7.5C7.11206 9.44 8.67206 11 10.6121 11C12.5521 11 14.1121 9.44 14.1121 7.5C14.1121 5.56 12.5521 4 10.6121 4ZM10.6121 9C9.78206 9 9.11206 8.33 9.11206 7.5C9.11206 6.67 9.78206 6 10.6121 6C11.4421 6 12.1121 6.67 12.1121 7.5C12.1121 8.33 11.4421 9 10.6121 9Z" fill="white"/>
</svg>
