<svg width="23" height="25" viewBox="0 0 23 25" fill="none" xmlns="http://www.w3.org/2000/svg">
<path d="M14.3098 19.3888C14.3098 20.1687 14.0248 20.9165 13.5175 21.4679C13.0102 22.0194 12.3222 22.3291 11.6048 22.3291C10.8873 22.3291 10.1993 22.0194 9.69199 21.4679C9.18469 20.9165 8.89969 20.1687 8.89969 19.3888M12.2549 5.67044L10.933 5.6675C7.91775 5.65966 5.30015 8.32258 5.27941 11.5481V15.2626C5.27941 16.0369 5.18924 16.7926 4.80062 17.4365L4.54183 17.8658C4.14779 18.5166 4.57159 19.3888 5.27941 19.3888H17.9301C18.6379 19.3888 19.0608 18.5166 18.6677 17.8658L18.4089 17.4365C18.0212 16.7926 17.9301 16.0359 17.9301 15.2617V11.5491C17.894 8.32258 15.2701 5.67828 12.2549 5.67044V5.67044Z" stroke="#5C8670" stroke-width="1.5" stroke-linecap="round" stroke-linejoin="round"/>
<path d="M11.6047 2.72729C12.083 2.72729 12.5417 2.93381 12.8799 3.30142C13.2181 3.66903 13.4081 4.16761 13.4081 4.68749V5.66758H9.80133V4.68749C9.80133 4.16761 9.99133 3.66903 10.3295 3.30142C10.6677 2.93381 11.1264 2.72729 11.6047 2.72729Z" stroke="#5C8670" stroke-width="1.5" stroke-linecap="round" stroke-linejoin="round"/>
</svg>
