<svg width="20" height="23" viewBox="0 0 20 23" fill="none" xmlns="http://www.w3.org/2000/svg">
<path d="M17.3523 7.02092L16.4246 8.06258C18.0946 9.93758 18.0946 12.8542 16.4246 14.8334L17.3523 15.8751C19.6718 13.4792 19.6718 9.52092 17.3523 7.02092ZM15.404 9.20842L14.4762 10.2501C14.9401 10.9792 14.9401 11.9167 14.4762 12.6459L15.404 13.6876C16.5173 12.4376 16.5173 10.5626 15.404 9.20842ZM11.6929 0.041748H2.41513C1.39457 0.041748 0.55957 0.979248 0.55957 2.12508V20.8751C0.55957 22.0209 1.39457 22.9584 2.41513 22.9584H11.6929C12.7135 22.9584 13.5485 22.0209 13.5485 20.8751V2.12508C13.5485 0.979248 12.7135 0.041748 11.6929 0.041748ZM11.6929 19.8334H2.41513V3.16675H11.6929V19.8334Z" fill="#5C8670"/>
</svg>
