<svg width="30" height="27" viewBox="0 0 30 27" fill="none" xmlns="http://www.w3.org/2000/svg">
<path fill-rule="evenodd" clip-rule="evenodd" d="M28.5 18.869C29.2693 18.869 29.9033 19.3893 29.9899 20.0596L30 20.2168V22.9123C30 25.0657 28.1266 26.8258 25.7644 26.9488L25.5 26.9557H4.5C2.10348 26.9557 0.144509 25.2724 0.00763893 23.1499L0 22.9123V20.2168C0 19.4724 0.671573 18.869 1.5 18.869C2.26925 18.869 2.90326 19.3893 2.98991 20.0596L3 20.2168V22.9123C3 23.6035 3.57906 24.1732 4.32507 24.251L4.5 24.2601H25.5C26.2693 24.2601 26.9033 23.7398 26.9899 23.0695L27 22.9123V20.2168C27 19.4724 27.6716 18.869 28.5 18.869ZM15 0C15.8284 0 16.5 0.603423 16.5 1.34778V14.2663L18.4393 12.5248C18.9801 12.039 19.8309 12.0016 20.4193 12.4127L20.5607 12.5248C21.1014 13.0107 21.143 13.7752 20.6854 14.3039L20.5607 14.4309L16.0607 18.4742L15.9947 18.53L15.893 18.6044L15.7261 18.7009L15.557 18.773L15.399 18.8207L15.1762 18.8598L15 18.869L14.8871 18.8652L14.6989 18.8417L14.5318 18.8019L14.3652 18.7427L14.2189 18.6722L14.0749 18.5822C14.0273 18.5486 13.982 18.5126 13.9393 18.4742L9.43934 14.4309C8.85355 13.9045 8.85355 13.0512 9.43934 12.5248C9.98007 12.039 10.8309 12.0016 11.4193 12.4127L11.5607 12.5248L13.5 14.2663V1.34778C13.5 0.603423 14.1716 0 15 0Z" fill="#5d876f"/>
</svg>
