<svg width="17" height="20" viewBox="0 0 17 20" fill="none" xmlns="http://www.w3.org/2000/svg">
<path d="M8.93799 10C7.83799 10 6.93799 9.1 6.93799 8C6.93799 6.9 7.83799 6 8.93799 6C10.038 6 10.938 6.9 10.938 8C10.938 9.1 10.038 10 8.93799 10ZM14.938 8.2C14.938 4.57 12.288 2 8.93799 2C5.58799 2 2.93799 4.57 2.93799 8.2C2.93799 10.54 4.88799 13.64 8.93799 17.34C12.988 13.64 14.938 10.54 14.938 8.2ZM8.93799 0C13.138 0 16.938 3.22 16.938 8.2C16.938 11.52 14.268 15.45 8.93799 20C3.60799 15.45 0.937988 11.52 0.937988 8.2C0.937988 3.22 4.73799 0 8.93799 0Z" fill="white"/>
</svg>
