<svg width="23" height="25" viewBox="0 0 23 25" fill="none" xmlns="http://www.w3.org/2000/svg">
<path d="M17.25 8.33341H16.2916V6.25008C16.2916 3.37508 14.145 1.04175 11.5 1.04175C8.85498 1.04175 6.70831 3.37508 6.70831 6.25008V8.33341H5.74998C4.69581 8.33341 3.83331 9.27091 3.83331 10.4167V20.8334C3.83331 21.9792 4.69581 22.9167 5.74998 22.9167H17.25C18.3041 22.9167 19.1666 21.9792 19.1666 20.8334V10.4167C19.1666 9.27091 18.3041 8.33341 17.25 8.33341ZM8.62498 6.25008C8.62498 4.52091 9.90915 3.12508 11.5 3.12508C13.0908 3.12508 14.375 4.52091 14.375 6.25008V8.33341H8.62498V6.25008ZM17.25 20.8334H5.74998V10.4167H17.25V20.8334ZM11.5 17.7084C12.5541 17.7084 13.4166 16.7709 13.4166 15.6251C13.4166 14.4792 12.5541 13.5417 11.5 13.5417C10.4458 13.5417 9.58331 14.4792 9.58331 15.6251C9.58331 16.7709 10.4458 17.7084 11.5 17.7084Z" fill="#5C8670"/>
</svg>
