<svg width="19" height="21" viewBox="0 0 19 21" fill="none" xmlns="http://www.w3.org/2000/svg">
<path d="M16.7307 11.5208C16.7678 11.1874 16.7957 10.8541 16.7957 10.4999C16.7957 10.1458 16.7678 9.81242 16.7307 9.47908L18.6883 7.76033C18.8646 7.60408 18.911 7.32283 18.7997 7.09367L16.9441 3.4895C16.8606 3.32284 16.7029 3.22909 16.5359 3.22909C16.4802 3.22909 16.4245 3.2395 16.3782 3.26034L14.068 4.302C13.5855 3.88534 13.066 3.54159 12.5 3.28117L12.1475 0.520752C12.1197 0.270752 11.9248 0.083252 11.6929 0.083252H7.98177C7.74983 0.083252 7.55499 0.270752 7.52716 0.520752L7.1746 3.28117C6.60866 3.54159 6.0891 3.89575 5.60666 4.302L3.29649 3.26034C3.24083 3.2395 3.18516 3.22909 3.12949 3.22909C2.97177 3.22909 2.81405 3.32284 2.73055 3.4895L0.874993 7.09367C0.754382 7.32283 0.810049 7.60408 0.986327 7.76033L2.94394 9.47908C2.90683 9.81242 2.87899 10.1562 2.87899 10.4999C2.87899 10.8437 2.90683 11.1874 2.94394 11.5208L0.986327 13.2395C0.810049 13.3958 0.76366 13.677 0.874993 13.9062L2.73055 17.5103C2.81405 17.677 2.97177 17.7708 3.13877 17.7708C3.19444 17.7708 3.2501 17.7603 3.29649 17.7395L5.60666 16.6978C6.0891 17.1145 6.60866 17.4583 7.1746 17.7187L7.52716 20.4791C7.55499 20.7291 7.74983 20.9166 7.98177 20.9166H11.6929C11.9248 20.9166 12.1197 20.7291 12.1475 20.4791L12.5 17.7187C13.066 17.4583 13.5855 17.1041 14.068 16.6978L16.3782 17.7395C16.4338 17.7603 16.4895 17.7708 16.5452 17.7708C16.7029 17.7708 16.8606 17.677 16.9441 17.5103L18.7997 13.9062C18.911 13.677 18.8646 13.3958 18.6883 13.2395L16.7307 11.5208ZM14.8937 9.7395C14.9308 10.0624 14.9401 10.2812 14.9401 10.4999C14.9401 10.7187 14.9215 10.9478 14.8937 11.2603L14.7638 12.4374L15.5895 13.1666L16.5915 14.0416L15.9421 15.302L14.7638 14.7708L13.7989 14.3333L12.9639 15.0416C12.565 15.3749 12.1846 15.6249 11.8042 15.802L10.8208 16.2499L10.6723 17.427L10.4868 18.8333H9.18788L9.0116 17.427L8.86316 16.2499L7.87971 15.802C7.48077 15.6145 7.10966 15.3749 6.73855 15.0624L5.89427 14.3333L4.91083 14.7812L3.73255 15.3124L3.0831 14.052L4.0851 13.177L4.91083 12.4478L4.78094 11.2708C4.7531 10.9478 4.73455 10.7083 4.73455 10.4999C4.73455 10.2916 4.7531 10.052 4.78094 9.7395L4.91083 8.56242L4.0851 7.83325L3.0831 6.95825L3.73255 5.69783L4.91083 6.22908L5.87571 6.66658L6.71071 5.95825C7.10966 5.62492 7.49005 5.37492 7.87044 5.19783L8.85388 4.74992L9.00233 3.57283L9.18788 2.16659H10.4775L10.6538 3.57283L10.8022 4.74992L11.7857 5.19783C12.1846 5.38533 12.5557 5.62492 12.9268 5.93742L13.7711 6.66658L14.7545 6.21867L15.9328 5.68742L16.5823 6.94783L15.5895 7.83325L14.7638 8.56242L14.8937 9.7395ZM9.83733 6.33325C7.78694 6.33325 6.12621 8.19783 6.12621 10.4999C6.12621 12.802 7.78694 14.6666 9.83733 14.6666C11.8877 14.6666 13.5484 12.802 13.5484 10.4999C13.5484 8.19783 11.8877 6.33325 9.83733 6.33325ZM9.83733 12.5833C8.81677 12.5833 7.98177 11.6458 7.98177 10.4999C7.98177 9.35408 8.81677 8.41658 9.83733 8.41658C10.8579 8.41658 11.6929 9.35408 11.6929 10.4999C11.6929 11.6458 10.8579 12.5833 9.83733 12.5833Z" fill="#5C8670"/>
</svg>
