<svg width="24" height="24" viewBox="0 0 24 24" fill="none" xmlns="http://www.w3.org/2000/svg">
<path d="M21.6559 23.2491L14.7052 16.2984C13.1747 17.4415 11.3167 18.0612 9.40649 18.0656H9.40462L9.30337 18.0666C7.04944 18.0666 4.88783 17.1712 3.29407 15.5774C1.7003 13.9837 0.804932 11.8221 0.804932 9.56812L0.805869 9.46125V9.46687C0.805869 7.15502 1.72425 4.93784 3.35898 3.30311C4.99371 1.66838 7.21089 0.75 9.52274 0.75C11.8346 0.75 14.0518 1.66838 15.6865 3.30311C17.3212 4.93784 18.2396 7.15502 18.2396 9.46687C18.2154 11.3853 17.5912 13.2481 16.4546 14.7937L16.4724 14.7684L23.4231 21.7191L21.6559 23.2491ZM9.52274 3.105C7.8459 3.00848 6.19935 3.58177 4.94504 4.69883C3.69073 5.8159 2.93132 7.38532 2.83375 9.0621C2.73617 10.7389 3.30842 12.3858 4.42469 13.6408C5.54097 14.8958 7.10991 15.6562 8.78663 15.7548C10.4634 15.8535 12.1106 15.2823 13.3663 14.1668C14.6221 13.0513 15.3834 11.4828 15.4831 9.80618C15.5828 8.12952 15.0126 6.48189 13.898 5.22547C12.7833 3.96905 11.2153 3.20668 9.53868 3.10594H9.52274H9.52368L9.52274 3.105Z" fill="white"/>
</svg>
