<svg width="21" height="21" viewBox="0 0 21 21" fill="none" xmlns="http://www.w3.org/2000/svg">
<path d="M13.6986 9.45825C14.5392 9.45825 15.2206 8.7587 15.2206 7.89575C15.2206 7.03281 14.5392 6.33325 13.6986 6.33325C12.858 6.33325 12.1765 7.03281 12.1765 7.89575C12.1765 8.7587 12.858 9.45825 13.6986 9.45825Z" fill="#5C8670"/>
<path d="M6.59561 9.45825C7.43622 9.45825 8.11767 8.7587 8.11767 7.89575C8.11767 7.03281 7.43622 6.33325 6.59561 6.33325C5.755 6.33325 5.07355 7.03281 5.07355 7.89575C5.07355 8.7587 5.755 9.45825 6.59561 9.45825Z" fill="#5C8670"/>
<path d="M10.1471 14.6666C8.64529 14.6666 7.35662 13.8228 6.64632 12.5833H4.95177C5.76353 14.7187 7.78279 16.2291 10.1471 16.2291C12.5113 16.2291 14.5306 14.7187 15.3424 12.5833H13.6478C12.9476 13.8228 11.6488 14.6666 10.1471 14.6666ZM10.1369 0.083252C4.53574 0.083252 0 4.74992 0 10.4999C0 16.2499 4.53574 20.9166 10.1369 20.9166C15.7482 20.9166 20.2941 16.2499 20.2941 10.4999C20.2941 4.74992 15.7482 0.083252 10.1369 0.083252ZM10.1471 18.8333C5.66206 18.8333 2.02941 15.1041 2.02941 10.4999C2.02941 5.89575 5.66206 2.16659 10.1471 2.16659C14.6321 2.16659 18.2647 5.89575 18.2647 10.4999C18.2647 15.1041 14.6321 18.8333 10.1471 18.8333Z" fill="#5C8670"/>
</svg>
